<svg xmlns="http://www.w3.org/2000/svg" xmlns:xlink="http://www.w3.org/1999/xlink" width="500" zoomAndPan="magnify" viewBox="0 0 375 74.999997" height="100" preserveAspectRatio="xMidYMid meet" version="1.0"><defs><clipPath id="03a00be53f"><path d="M 2.371094 10.535156 L 369.871094 10.535156 L 369.871094 62 L 2.371094 62 Z M 2.371094 10.535156 " clip-rule="nonzero"/></clipPath></defs><g clip-path="url(#03a00be53f)"><path fill="#494746" d="M 368.976562 59.429688 C 356.949219 50.457031 343.132812 46.414062 326.730469 47.074219 C 317.527344 47.445312 308.28125 48.5625 299.335938 49.644531 L 295.300781 50.128906 C 280.160156 51.933594 262.996094 53.976562 246.082031 52.992188 C 232.292969 52.1875 221.425781 49.652344 211.976562 45.039062 C 214.109375 43.859375 217.632812 41.753906 221.746094 38.679688 C 226.699219 34.96875 229.964844 28.960938 229.507812 24.390625 C 229.253906 21.867188 227.929688 19.96875 225.683594 18.902344 C 223.203125 17.722656 220.421875 18.292969 218.058594 20.460938 C 217.648438 20.835938 217.242188 21.429688 216.765625 22.121094 C 216.359375 22.714844 215.5625 23.875 215.058594 24.269531 C 214.6875 23.761719 214.386719 23.132812 214.074219 22.46875 C 213.867188 22.035156 213.664062 21.609375 213.441406 21.203125 C 212.203125 18.972656 210.085938 16.101562 205.996094 16.945312 C 203.339844 17.496094 201.148438 19.488281 200.28125 22.15625 C 197.777344 29.835938 205.121094 41.417969 207.4375 44.796875 C 196.164062 51.050781 183.5625 51.734375 168.914062 46.882812 C 168.65625 46.800781 168.40625 46.726562 168.160156 46.664062 C 170.609375 44.863281 174.546875 41.222656 177.082031 35.027344 C 179.542969 29.003906 178.402344 20.433594 174.429688 15.089844 C 172.171875 12.050781 169.265625 10.546875 166.253906 10.832031 C 163.140625 11.132812 160.753906 13.324219 159.707031 16.84375 C 159.527344 17.445312 159.476562 18.28125 159.414062 19.25 C 159.359375 20.144531 159.234375 22.167969 158.871094 22.753906 C 158.863281 22.753906 158.851562 22.75 158.84375 22.746094 C 158.074219 22.453125 157.320312 21.953125 156.523438 21.421875 C 156.058594 21.109375 155.597656 20.804688 155.128906 20.535156 C 152.597656 19.066406 148.828125 17.488281 145.324219 20.707031 C 143.039062 22.808594 142.0625 26.058594 142.777344 29.191406 C 144.824219 38.144531 158.554688 45.230469 163.253906 47.417969 C 156.992188 50.921875 149.632812 53.03125 140.113281 54.046875 C 129.8125 55.140625 119.378906 53.671875 110.40625 52.207031 C 105.609375 51.425781 100.738281 50.53125 96.027344 49.671875 C 89.996094 48.566406 83.757812 47.425781 77.574219 46.492188 C 52.066406 42.644531 27.113281 46.105469 3.398438 56.777344 C 2.703125 57.09375 2.390625 57.914062 2.703125 58.613281 C 3.019531 59.3125 3.839844 59.625 4.539062 59.308594 C 27.753906 48.855469 52.1875 45.46875 77.160156 49.238281 C 83.300781 50.164062 89.515625 51.300781 95.527344 52.402344 C 100.253906 53.265625 105.136719 54.15625 109.960938 54.945312 C 119.109375 56.4375 129.761719 57.9375 140.40625 56.804688 C 150.417969 55.738281 158.179688 53.488281 164.828125 49.726562 C 165.898438 49.117188 166.675781 49.066406 168.039062 49.519531 C 183.507812 54.640625 196.867188 53.871094 208.878906 47.171875 C 209.324219 46.921875 209.507812 46.917969 209.96875 47.148438 C 219.949219 52.175781 231.371094 54.914062 245.921875 55.761719 C 263.078125 56.761719 280.371094 54.703125 295.628906 52.886719 L 299.667969 52.398438 C 308.558594 51.324219 317.75 50.210938 326.839844 49.847656 C 342.582031 49.210938 355.820312 53.074219 367.316406 61.652344 C 367.566406 61.839844 367.855469 61.929688 368.144531 61.929688 C 368.566406 61.929688 368.984375 61.734375 369.257812 61.371094 C 369.714844 60.757812 369.589844 59.886719 368.976562 59.429688 Z M 165.253906 45.277344 C 162.042969 43.835938 147.367188 36.824219 145.480469 28.570312 C 144.988281 26.410156 145.648438 24.179688 147.203125 22.753906 C 148.035156 21.984375 148.894531 21.601562 149.894531 21.601562 C 150.964844 21.601562 152.199219 22.042969 153.738281 22.9375 C 154.15625 23.179688 154.570312 23.453125 154.984375 23.730469 C 155.875 24.324219 156.792969 24.9375 157.859375 25.339844 C 159.027344 25.78125 159.867188 25.472656 160.371094 25.136719 C 161.894531 24.109375 162.050781 21.617188 162.183594 19.421875 C 162.230469 18.722656 162.277344 17.933594 162.367188 17.636719 C 162.875 15.925781 164.007812 13.839844 166.519531 13.597656 C 169.082031 13.34375 171.027344 15.171875 172.199219 16.746094 C 175.585938 21.300781 176.601562 28.867188 174.511719 33.976562 C 171.691406 40.867188 166.859375 44.292969 165.253906 45.277344 Z M 209.664062 43.128906 C 207.480469 39.910156 200.847656 29.367188 202.921875 23.015625 C 203.480469 21.296875 204.875 20.011719 206.554688 19.664062 C 206.84375 19.605469 207.113281 19.574219 207.375 19.574219 C 208.792969 19.574219 209.863281 20.476562 211.011719 22.546875 C 211.207031 22.902344 211.386719 23.28125 211.566406 23.660156 C 211.960938 24.488281 212.367188 25.347656 212.984375 26.125 C 213.734375 27.078125 214.625 27.175781 215.078125 27.152344 C 216.742188 27.0625 217.96875 25.273438 219.054688 23.691406 C 219.367188 23.234375 219.757812 22.667969 219.9375 22.503906 C 221.003906 21.527344 222.660156 20.539062 224.492188 21.410156 C 225.855469 22.054688 226.589844 23.121094 226.746094 24.667969 C 227.101562 28.214844 224.175781 33.390625 220.082031 36.457031 C 215.414062 39.949219 211.464844 42.179688 209.664062 43.128906 Z M 209.664062 43.128906 " fill-opacity="1" fill-rule="nonzero"/></g><path fill="#494746" d="M 126.964844 54.761719 L 128.679688 54.761719 L 128.679688 57.761719 L 126.964844 57.761719 " fill-opacity="1" fill-rule="nonzero"/></svg>